<svg width="34" height="25" viewBox="0 0 34 25" fill="none" xmlns="http://www.w3.org/2000/svg">
<path d="M4.26912 5.17307C6.45962 2.60301 9.48919 0.782084 12.5405 0.201387C13.0472 0.104989 13.831 0.0202569 14.2823 0.0130784L15.1027 2.64064e-06L15.1027 1.45559L15.1027 2.91118L14.3207 2.9854C12.7039 3.13897 10.92 4.17243 9.78034 5.61571C9.24047 6.29947 8.20598 8.38178 8.33408 8.52676C8.36599 8.56304 8.69267 8.67905 9.05998 8.7848C11.3928 9.45652 13.3713 11.5559 14.151 14.187C14.5363 15.4873 14.6255 17.1407 14.3814 18.4592C13.822 21.4821 11.7055 23.9707 9.03644 24.7441C5.18784 25.8591 1.2606 23.2286 0.212084 18.8336C-0.355739 16.4533 0.250219 12.3794 1.62814 9.31346C2.36083 7.68289 3.04793 6.60584 4.26912 5.17307Z" fill="#626262"/>
<path d="M18.9304 16.6646C18.9616 8.68123 24.3841 1.54366 31.4378 0.201391C31.9445 0.104992 32.7283 0.0202603 33.1796 0.0130817L34 5.94475e-06L34 1.45559L34 2.91118L33.218 2.9854C31.6039 3.13872 29.8136 4.17449 28.6865 5.60713C28.1633 6.27204 27.112 8.39152 27.2358 8.53176C27.2653 8.56522 27.59 8.67905 27.9573 8.78481C29.6016 9.25821 31.2962 10.6293 32.2512 12.2592C33.2716 14.0008 33.6732 16.4606 33.2713 18.5073C32.7023 21.4045 30.8444 23.6836 28.229 24.6927C27.2705 25.0624 24.9256 25.0293 23.929 24.6319C21.6614 23.7277 19.949 21.7417 19.217 19.167C18.9699 18.298 18.9255 17.9106 18.9304 16.6646Z" fill="#626262"/>
</svg>
