<svg width="28" height="28" viewBox="0 0 28 28" fill="none" xmlns="http://www.w3.org/2000/svg">
<rect x="0.916016" y="0.503052" width="26.9155" height="26.9939" rx="13.4577" fill="white"/>
<path d="M17.0144 7.42456C17.2505 7.4505 17.4605 7.4505 17.6966 7.47644C17.8541 7.47644 18.0115 7.50238 18.169 7.52832C18.169 8.22866 18.169 8.90306 18.169 9.62935C18.1165 9.62935 18.0378 9.62935 17.9853 9.62935C17.5392 9.62935 17.0931 9.62935 16.647 9.65528C16.0959 9.68122 15.781 9.96655 15.7548 10.5113C15.7286 11.0819 15.7548 11.6526 15.7548 12.2491C16.5158 12.2491 17.303 12.2491 18.0903 12.2491C17.9853 13.0273 17.8803 13.8055 17.7754 14.5836C17.0931 14.5836 16.4371 14.5836 15.7548 14.5836C15.7548 16.5809 15.7548 18.5782 15.7548 20.5755C14.9413 20.5755 14.1279 20.5755 13.3144 20.5755C13.3144 18.5782 13.3144 16.6068 13.3144 14.5836C12.6321 14.5836 11.9498 14.5836 11.2676 14.5836C11.2676 13.8055 11.2676 13.0273 11.2676 12.2491C11.9498 12.2491 12.6059 12.2491 13.3144 12.2491C13.3144 12.1713 13.3144 12.1454 13.3144 12.0935C13.3144 11.471 13.3144 10.8744 13.3144 10.2519C13.3406 9.52559 13.5768 8.85119 14.1016 8.28054C14.4952 7.86552 14.9938 7.63207 15.5711 7.50238C15.7286 7.47644 15.886 7.4505 16.0172 7.42456C16.3321 7.42456 16.6732 7.42456 17.0144 7.42456Z" fill="#111617"/>
</svg>
