<svg width="27" height="28" viewBox="0 0 27 28" fill="none" xmlns="http://www.w3.org/2000/svg">
<rect y="0.503052" width="26.9155" height="26.9939" rx="13.4577" fill="white"/>
<path d="M14.6404 21.1998C13.6696 21.1998 12.7559 21.1998 11.7852 21.1998C11.7852 18.1358 11.7852 15.0717 11.7852 11.9791C12.6703 11.9791 13.584 11.9791 14.4977 11.9791C14.4977 12.38 14.4977 12.7809 14.4977 13.2104C14.5262 13.1818 14.5548 13.1818 14.5548 13.1818C15.1544 12.2081 16.0395 11.7786 17.153 11.75C17.7812 11.7213 18.4094 11.8072 18.9804 12.0936C19.7228 12.4372 20.1511 13.0672 20.3795 13.8404C20.5793 14.4704 20.6365 15.1004 20.6365 15.7303C20.6365 17.5058 20.6365 19.2812 20.6365 21.0566C20.6365 21.0852 20.6365 21.1139 20.6365 21.1425C19.6942 21.1425 18.752 21.1425 17.7812 21.1425C17.7812 21.0852 17.7812 21.028 17.7812 20.9421C17.7812 19.4244 17.7812 17.9353 17.7812 16.4176C17.7812 16.074 17.7526 15.7303 17.6955 15.3867C17.5242 14.4417 16.8961 14.1267 16.0395 14.2413C15.24 14.3272 14.8117 14.814 14.669 15.6731C14.6119 15.9881 14.6119 16.3031 14.6119 16.6181C14.6119 18.0498 14.6119 19.5103 14.6119 20.9421C14.6404 21.0566 14.6404 21.1139 14.6404 21.1998Z" fill="#111617"/>
<path d="M7.12891 12.0072C8.07114 12.0072 9.01338 12.0072 9.95561 12.0072C9.95561 15.0712 9.95561 18.1353 9.95561 21.1993C9.01338 21.1993 8.07114 21.1993 7.12891 21.1993C7.12891 18.1353 7.12891 15.0712 7.12891 12.0072Z" fill="#111617"/>
<path d="M10.1859 9.05734C10.1859 9.97354 9.44352 10.7179 8.55839 10.7466C7.64471 10.7466 6.90234 10.0022 6.90234 9.08597C6.90234 8.16977 7.64471 7.42536 8.55839 7.42536C9.44352 7.39673 10.1859 8.14114 10.1859 9.05734Z" fill="#111617"/>
</svg>
