<svg width="28" height="28" viewBox="0 0 28 28" fill="none" xmlns="http://www.w3.org/2000/svg">
<rect x="0.830078" y="0.503052" width="26.9155" height="26.9939" rx="13.4577" fill="white"/>
<path d="M7.73242 18.4009C9.25307 18.5219 10.6568 18.1588 11.885 17.1905C10.5983 17.0694 9.72097 16.4037 9.25307 15.1328C9.66248 15.1933 10.0719 15.1933 10.5398 15.0723C9.83793 14.8907 9.31156 14.5276 8.90215 14.0434C8.49275 13.4987 8.2588 12.8935 8.2588 12.1673C8.6682 12.3489 9.07761 12.5304 9.54551 12.5304C8.90216 12.0463 8.55124 11.5016 8.37578 10.7753C8.20032 10.0491 8.31729 9.32285 8.66821 8.65713C10.1889 10.5332 12.1189 11.5621 14.5169 11.7437C14.5169 11.4411 14.4584 11.199 14.5169 10.8964C14.5753 9.68597 15.4526 8.53609 16.5639 8.23349C17.6166 7.93089 18.5524 8.23349 19.3127 8.95973C19.3712 9.02025 19.4297 9.02025 19.4882 9.02025C20.0731 8.89921 20.5995 8.65713 21.1843 8.35453C20.9504 9.02025 20.541 9.56493 20.0146 9.92805C20.0146 9.92805 20.0146 9.92805 20.0146 9.98857C20.2485 9.92805 20.541 9.86753 20.7749 9.80701C21.0089 9.74649 21.3013 9.62545 21.5352 9.56493C21.1843 10.0491 20.8334 10.5333 20.3655 10.8964C20.19 11.0174 20.1316 11.1385 20.1316 11.3805C20.1316 12.712 19.8391 13.9224 19.3127 15.1328C18.6109 16.5853 17.6751 17.7957 16.3299 18.6429C15.3942 19.2481 14.3414 19.6113 13.2301 19.7928C12.4698 19.9139 11.7095 19.9139 10.9492 19.7928C9.77945 19.4297 8.72669 19.0666 7.73242 18.4009Z" fill="#111617"/>
</svg>
